<?xml version="1.0" encoding="utf-8"?>
<!-- Generator: Adobe Illustrator 21.1.0, SVG Export Plug-In . SVG Version: 6.00 Build 0)  -->
<svg version="1.1" id="Слой_1" xmlns="http://www.w3.org/2000/svg" xmlns:xlink="http://www.w3.org/1999/xlink" x="0px" y="0px"
	 viewBox="0 0 42.6 42.5" style="enable-background:new 0 0 42.6 42.5;" xml:space="preserve">
<style type="text/css">
	.st0{fill:#F58A1F;}
	.st1{fill:#58595B;}
</style>
<g>
	<path class="st0" d="M22.6,23.3v-0.7h-0.7c-1.1,0-2.1-0.9-2.1-2.1v-3.4c0-2.5,1.1-4.7,2.8-6.2H5.5v23.3h11.3l0.2-0.6
		c0.6-1.8,2-3.1,3.8-3.6l1.7-0.5c0-1.1,0.4-2.2,1.1-3.1C22.9,25.6,22.6,24.5,22.6,23.3"/>
	<path class="st1" d="M1.4,38.4V6.9h36.9V31c-0.7-0.8-1.7-1.3-2.7-1.6l-1.2-0.3c-0.1-0.9-0.4-1.8-1-2.6c0.5-0.9,0.9-2,0.9-3.1
		c1.5,0,2.7-1.2,2.7-2.7v-3.4c0-4.9-4-8.9-8.9-8.9s-8.9,4-8.9,8.9v3.4c0,1.5,1.2,2.7,2.7,2.7c0,1.1,0.3,2.2,0.9,3.1
		c-0.5,0.8-0.9,1.7-1,2.6l-1.2,0.3c-2,0.6-3.6,2.1-4.2,4.1l-1.6,4.9H1.4z M38.3,5.5H1.4V1.4h36.9V5.5z M29.4,37.7
		c0,0.8-0.6,1.4-1.4,1.4s-1.4-0.6-1.4-1.4c0-0.8,0.6-1.4,1.4-1.4S29.4,36.9,29.4,37.7 M24.7,29.7c0.1,0.6,0.4,1.1,0.9,1.6
		c0.6,0.6,1.5,1,2.4,1s1.8-0.4,2.4-1c0.4-0.4,0.7-1,0.9-1.6l1.6,0.4c-0.1,0.6-0.2,1.2-0.5,1.8L30.2,36C29.7,35.4,28.9,35,28,35
		s-1.7,0.4-2.2,1.1l-2.2-4.2c-0.3-0.6-0.5-1.2-0.5-1.8L24.7,29.7z M24.4,28.3l-1.2,0.3c0.1-0.4,0.2-0.7,0.4-1
		C23.9,27.9,24.1,28.1,24.4,28.3 M30,29.1c-0.1,0.4-0.3,0.8-0.6,1.1c-0.8,0.8-2.1,0.8-2.9,0c-0.3-0.3-0.5-0.7-0.6-1.1
		c0.6,0.2,1.3,0.3,2,0.3C28.7,29.5,29.4,29.4,30,29.1 M32.4,27.6c0.2,0.3,0.3,0.7,0.4,1l-1.2-0.3C31.9,28.1,32.2,27.9,32.4,27.6
		 M23.2,18.5c0-0.4,0.3-0.7,0.7-0.7h8.2c0.4,0,0.7,0.3,0.7,0.7v4.8c0,2.6-2.1,4.8-4.8,4.8c-2.6,0-4.8-2.2-4.8-4.8V18.5z M21.9,19.2
		v2.7c-0.8,0-1.4-0.6-1.4-1.4C20.5,19.8,21.1,19.2,21.9,19.2 M35.5,18.2c-0.4-0.2-0.9-0.4-1.4-0.4H34c-0.3-0.8-1-1.4-1.9-1.4h-8.2
		c-0.9,0-1.6,0.6-1.9,1.4h-0.1c-0.5,0-1,0.1-1.4,0.4v-1.1c0-4.2,3.4-7.5,7.5-7.5c4.1,0,7.5,3.4,7.5,7.5V18.2z M34.2,19.2
		c0.8,0,1.4,0.6,1.4,1.4c0,0.8-0.6,1.4-1.4,1.4V19.2z M40.8,41.1h-3.4l-0.6-2.9l-1.3,0.3l0.5,2.6H19.9l0.5-2.6l-1.3-0.3l-0.6,2.9
		h-3.2l2.3-7.2c0.5-1.6,1.7-2.7,3.3-3.2l0.9-0.2c0.1,0.7,0.3,1.4,0.6,2.1l2.9,5.4c0.1,1.4,1.3,2.5,2.7,2.5c1.4,0,2.6-1.1,2.7-2.5
		l2.9-5.4c0.4-0.7,0.6-1.4,0.6-2.1l0.9,0.2c1.6,0.4,2.8,1.6,3.3,3.2L40.8,41.1z M42.6,42.5l-2.9-9c0-0.1-0.1-0.2-0.1-0.3V0H0v39.8
		h14.3l-0.9,2.7H42.6z"/>
	<path class="st1" d="M28,26.7c1.5,0,2.7-1.2,2.7-2.7h-1.4c0,0.8-0.6,1.4-1.4,1.4c-0.8,0-1.4-0.6-1.4-1.4h-1.4
		C25.3,25.5,26.5,26.7,28,26.7"/>
</g>
<rect x="30.1" y="19.9" class="st1" width="1.4" height="1.4"/>
<rect x="24.6" y="19.9" class="st1" width="1.4" height="1.4"/>
<rect x="2.7" y="2.7" class="st1" width="1.4" height="1.4"/>
<rect x="5.5" y="2.7" class="st1" width="1.4" height="1.4"/>
<rect x="8.2" y="2.7" class="st1" width="1.4" height="1.4"/>
<rect x="8.2" y="13.7" class="st1" width="1.4" height="1.4"/>
<rect x="10.9" y="13.7" class="st1" width="6.8" height="1.4"/>
<rect x="8.2" y="16.5" class="st1" width="9.6" height="1.4"/>
<rect x="8.2" y="19.2" class="st1" width="9.6" height="1.4"/>
<rect x="15" y="30.2" class="st1" width="1.4" height="1.4"/>
<rect x="8.2" y="30.2" class="st1" width="5.5" height="1.4"/>
<rect x="8.2" y="27.4" class="st1" width="9.6" height="1.4"/>
<rect x="8.2" y="24.7" class="st1" width="9.6" height="1.4"/>
<rect x="8.2" y="21.9" class="st1" width="9.6" height="1.4"/>
</svg>
