<?xml version="1.0" encoding="utf-8"?>
<!-- Generator: Adobe Illustrator 21.1.0, SVG Export Plug-In . SVG Version: 6.00 Build 0)  -->
<svg version="1.1" id="Слой_1" xmlns="http://www.w3.org/2000/svg" xmlns:xlink="http://www.w3.org/1999/xlink" x="0px" y="0px"
	 viewBox="0 0 62.1 63.8" style="enable-background:new 0 0 62.1 63.8;" xml:space="preserve">
<style type="text/css">
	.st0{display:none;}
	.st1{display:inline;}
	.st2{fill:#F58A1F;}
	.st3{fill:#58595B;}
	.st4{display:inline;fill:#58595B;}
	.st5{fill:#EB871E;}
	.st6{fill:#55555A;}
</style>
<g class="st0">
	<g class="st1">
		<path class="st2" d="M31.9,32.9v-0.7h-0.7c-1.1,0-2.1-0.9-2.1-2.1v-3.4c0-2.5,1.1-4.7,2.8-6.2H14.8v23.3H26l0.2-0.6
			c0.6-1.8,2-3.1,3.8-3.6l1.7-0.5c0-1.1,0.4-2.2,1.1-3.1C32.2,35.1,31.9,34.1,31.9,32.9"/>
		<path class="st3" d="M10.7,48V16.4h36.9v24.2c-0.7-0.8-1.7-1.3-2.7-1.6l-1.2-0.3c-0.1-0.9-0.4-1.8-1-2.6c0.5-0.9,0.9-2,0.9-3.1
			c1.5,0,2.7-1.2,2.7-2.7v-3.4c0-4.9-4-8.9-8.9-8.9s-8.9,4-8.9,8.9v3.4c0,1.5,1.2,2.7,2.7,2.7c0,1.1,0.3,2.2,0.9,3.1
			c-0.5,0.8-0.9,1.7-1,2.6L29.8,39c-2,0.6-3.6,2.1-4.2,4.1L24,48H10.7z M47.6,15.1H10.7v-4.1h36.9V15.1z M38.7,47.3
			c0,0.8-0.6,1.4-1.4,1.4S36,48,36,47.3c0-0.8,0.6-1.4,1.4-1.4S38.7,46.5,38.7,47.3 M34,39.2c0.1,0.6,0.4,1.1,0.9,1.6
			c0.6,0.6,1.5,1,2.4,1s1.8-0.4,2.4-1c0.4-0.4,0.7-1,0.9-1.6l1.6,0.4c-0.1,0.6-0.2,1.2-0.5,1.8l-2.2,4.2c-0.5-0.7-1.3-1.1-2.2-1.1
			s-1.7,0.4-2.2,1.1l-2.2-4.2c-0.3-0.6-0.5-1.2-0.5-1.8L34,39.2z M33.7,37.9l-1.2,0.3c0.1-0.4,0.2-0.7,0.4-1
			C33.2,37.4,33.4,37.7,33.7,37.9 M39.3,38.7c-0.1,0.4-0.3,0.8-0.6,1.1c-0.8,0.8-2.1,0.8-2.9,0c-0.3-0.3-0.5-0.7-0.6-1.1
			c0.6,0.2,1.3,0.3,2,0.3C38,39.1,38.7,38.9,39.3,38.7 M41.7,37.2c0.2,0.3,0.3,0.7,0.4,1l-1.2-0.3C41.2,37.7,41.5,37.4,41.7,37.2
			 M32.5,28.1c0-0.4,0.3-0.7,0.7-0.7h8.2c0.4,0,0.7,0.3,0.7,0.7v4.8c0,2.6-2.1,4.8-4.8,4.8c-2.6,0-4.8-2.2-4.8-4.8V28.1z M31.2,28.8
			v2.7c-0.8,0-1.4-0.6-1.4-1.4C29.8,29.4,30.4,28.8,31.2,28.8 M44.8,27.8c-0.4-0.2-0.9-0.4-1.4-0.4h-0.1c-0.3-0.8-1-1.4-1.9-1.4
			h-8.2c-0.9,0-1.6,0.6-1.9,1.4h-0.1c-0.5,0-1,0.1-1.4,0.4v-1.1c0-4.2,3.4-7.5,7.5-7.5c4.1,0,7.5,3.4,7.5,7.5V27.8z M43.5,28.8
			c0.8,0,1.4,0.6,1.4,1.4c0,0.8-0.6,1.4-1.4,1.4V28.8z M50.1,50.7h-3.4l-0.6-2.9l-1.3,0.3l0.5,2.6H29.2l0.5-2.6l-1.3-0.3l-0.6,2.9
			h-3.2l2.3-7.2c0.5-1.6,1.7-2.7,3.3-3.2l0.9-0.2c0.1,0.7,0.3,1.4,0.6,2.1l2.9,5.4c0.1,1.4,1.3,2.5,2.7,2.5c1.4,0,2.6-1.1,2.7-2.5
			l2.9-5.4c0.4-0.7,0.6-1.4,0.6-2.1l0.9,0.2c1.6,0.4,2.8,1.6,3.3,3.2L50.1,50.7z M51.9,52.1l-2.9-9c0-0.1-0.1-0.2-0.1-0.3V9.6H9.3
			v39.8h14.3l-0.9,2.7H51.9z"/>
		<path class="st3" d="M37.3,36.3c1.5,0,2.7-1.2,2.7-2.7h-1.4c0,0.8-0.6,1.4-1.4,1.4c-0.8,0-1.4-0.6-1.4-1.4h-1.4
			C34.6,35.1,35.8,36.3,37.3,36.3"/>
	</g>
	<rect x="39.4" y="29.5" class="st4" width="1.4" height="1.4"/>
	<rect x="33.9" y="29.5" class="st4" width="1.4" height="1.4"/>
	<rect x="12" y="12.3" class="st4" width="1.4" height="1.4"/>
	<rect x="14.8" y="12.3" class="st4" width="1.4" height="1.4"/>
	<rect x="17.5" y="12.3" class="st4" width="1.4" height="1.4"/>
	<rect x="17.5" y="23.3" class="st4" width="1.4" height="1.4"/>
	<rect x="20.2" y="23.3" class="st4" width="6.8" height="1.4"/>
	<rect x="17.5" y="26" class="st4" width="9.6" height="1.4"/>
	<rect x="17.5" y="28.8" class="st4" width="9.6" height="1.4"/>
	<rect x="24.3" y="39.7" class="st4" width="1.4" height="1.4"/>
	<rect x="17.5" y="39.7" class="st4" width="5.5" height="1.4"/>
	<rect x="17.5" y="37" class="st4" width="9.6" height="1.4"/>
	<rect x="17.5" y="34.3" class="st4" width="9.6" height="1.4"/>
	<rect x="17.5" y="31.5" class="st4" width="9.6" height="1.4"/>
</g>
<g>
	<rect y="49.4" class="st5" width="14" height="14.4"/>
	<rect x="48.1" y="49.4" class="st5" width="14" height="14.4"/>
	<rect x="24.1" y="49.4" class="st5" width="14" height="14.4"/>
	<path class="st6" d="M31.1,14.4c2.2,0,4,1.8,4,4.1c0,2.3-1.8,4.1-4,4.1c-2.2,0-4-1.8-4-4.1C27.1,16.2,28.9,14.4,31.1,14.4
		 M31.1,24.7c3.3,0,6-2.8,6-6.2c0-3.4-2.7-6.2-6-6.2c-3.3,0-6,2.8-6,6.2C25.1,21.9,27.8,24.7,31.1,24.7"/>
	<rect x="4" y="53.5" class="st6" width="6" height="2.1"/>
	<rect x="4" y="57.6" class="st6" width="6" height="2.1"/>
	<rect x="52.1" y="53.5" class="st6" width="6" height="2.1"/>
	<rect x="56.1" y="57.6" class="st6" width="2" height="2.1"/>
	<rect x="52.1" y="57.6" class="st6" width="2" height="2.1"/>
	<rect x="28.1" y="53.5" class="st6" width="6" height="2.1"/>
	<rect x="28.1" y="57.6" class="st6" width="6" height="2.1"/>
	<path class="st6" d="M56.1,49.4v-3.1c0-1.7-1.3-3.1-3-3.1h-21V37h-2v6.2H9c-1.7,0-3,1.4-3,3.1v3.1h2v-3.1c0-0.6,0.5-1,1-1h21v4.1h2
		v-4.1h21c0.6,0,1,0.5,1,1v3.1H56.1z"/>
	<path class="st6" d="M3,31.9c-0.6,0-1-0.5-1-1c0-0.6,0.4-1,1-1s1,0.5,1,1C4,31.4,3.6,31.9,3,31.9 M11,6.2c0.6,0,1,0.5,1,1
		c0,0.6-0.4,1-1,1c-0.6,0-1-0.5-1-1C10,6.6,10.5,6.2,11,6.2 M6,30.9c0-1.3-0.8-2.5-2-2.9V9.3c0-0.6,0.4-1,1-1h3.2
		c0.4,1.2,1.5,2.1,2.8,2.1c1.7,0,3-1.4,3-3.1s-1.3-3.1-3-3.1C9.7,4.1,8.6,5,8.2,6.2H5c-1.7,0-3,1.4-3,3.1V28c-1.2,0.4-2,1.6-2,2.9
		c0,1.7,1.3,3.1,3,3.1S6,32.6,6,30.9"/>
	<rect x="6" y="12.3" class="st6" width="2" height="2.1"/>
	<rect x="6" y="16.5" class="st6" width="2" height="2.1"/>
	<rect x="6" y="20.6" class="st6" width="2" height="2.1"/>
	<path class="st6" d="M59.1,13.4c-0.6,0-1-0.5-1-1c0-0.6,0.4-1,1-1s1,0.5,1,1C60.1,12.9,59.7,13.4,59.1,13.4 M51.1,37
		c-0.6,0-1-0.5-1-1s0.4-1,1-1s1,0.5,1,1S51.7,37,51.1,37 M62.1,12.3c0-1.7-1.3-3.1-3-3.1s-3,1.4-3,3.1c0,1.3,0.8,2.5,2,2.9v18.7
		c0,0.6-0.5,1-1,1h-3.2c-0.4-1.2-1.5-2.1-2.8-2.1c-1.7,0-3,1.4-3,3.1c0,1.7,1.3,3.1,3,3.1c1.3,0,2.4-0.9,2.8-2.1h3.2
		c1.7,0,3-1.4,3-3.1V15.2C61.3,14.8,62.1,13.7,62.1,12.3"/>
	<rect x="54.1" y="28.8" class="st6" width="2" height="2.1"/>
	<rect x="54.1" y="24.7" class="st6" width="2" height="2.1"/>
	<rect x="54.1" y="20.6" class="st6" width="2" height="2.1"/>
	<path class="st5" d="M31.1,26.7c-4.4,0-8-3.7-8-8.2c0-4.5,3.6-8.2,8-8.2s8,3.7,8,8.2C39.1,23.1,35.5,26.7,31.1,26.7 M49.1,22.6
		v-8.2h-4.6c-0.3-0.9-0.6-1.9-1.1-2.7l3.3-3.3L41,2.5l-3.3,3.3C36.9,5.4,36,5,35.1,4.7V0h-8v4.7c-0.9,0.3-1.8,0.7-2.7,1.1l-3.3-3.3
		l-5.7,5.8l3.3,3.3c-0.5,0.9-0.8,1.8-1.1,2.7H13v8.2h4.6c0.3,0.9,0.6,1.9,1.1,2.7l-3.3,3.3l5.7,5.8l3.3-3.3c0.8,0.5,1.7,0.8,2.7,1.1
		V37h8v-4.7c0.9-0.3,1.8-0.7,2.7-1.1l3.3,3.3l5.7-5.8l-3.3-3.3c0.5-0.9,0.8-1.8,1.1-2.7H49.1z"/>
</g>
</svg>
