<?xml version="1.0" encoding="utf-8"?>
<!-- Generator: Adobe Illustrator 21.1.0, SVG Export Plug-In . SVG Version: 6.00 Build 0)  -->
<svg version="1.1" id="Layer_1" xmlns="http://www.w3.org/2000/svg" xmlns:xlink="http://www.w3.org/1999/xlink" x="0px" y="0px"
	 viewBox="0 0 276 135.6" style="enable-background:new 0 0 276 135.6;" xml:space="preserve">
<style type="text/css">
	.st0{fill:#BFD734;}
	.st1{fill:#FFFFFF;}
</style>
<g>
	<path class="st0" d="M244.8,46.3h9.5L276,81.8h-11.7l-14.8-24.1L235,81.8h-11.7L244.8,46.3z"/>
	<circle class="st1" cx="182.8" cy="18.8" r="13.2"/>
	<circle class="st1" cx="39" cy="52.2" r="12.8"/>
	<path class="st1" d="M127.1,120.3v-2.6c-5.4,11.9-15.1,17.9-29.2,17.9c-12.5,0.2-22.4-4.1-29.6-13c-7.2-8.9-10.9-19.9-10.9-32.9
		c0-13.3,4-24.1,12.1-32.5c8.1-8.4,17.9-12.6,29.5-12.6c8.6,0,16.8,2.3,24.4,6.7V0.3h19.9v106.2c0,6.2,0.3,9.8,0.9,10.9
		c1.1,1.9,3.8,2.9,8.2,2.9l0.4,13.7C135.7,136.9,127.1,132.3,127.1,120.3z M123.8,93.5V68.8c-6.9-4.9-14.2-7.2-21.7-6.9
		C95,62,89,64.5,84.3,69.4c-4.7,4.9-7.1,11.6-7.1,20.2c0,8,2,14.7,6.1,20.2c4.1,5.4,10,8.1,17.8,8.1c6.7,0,12.2-2.4,16.4-7.1
		C121.7,106,123.8,100.3,123.8,93.5z"/>
	<path class="st1" d="M192.8,46.8v87h-19.9v-87H192.8z"/>
	<path class="st1" d="M51.3,0H35.4v0c-18.7,0.2-34,15-35,33.6c0,0.3-0.1,0.5-0.1,0.8L0,45.4v15.8v72.6h19.7V61.2v-15V35.4h0
		c0-8.6,6.8-15.7,15.3-16.1c0.3,0,2.3-0.1,2.3-0.1l14,0V0z"/>
</g>
</svg>
